<svg width="29" height="28" viewBox="0 0 29 28" fill="none" xmlns="http://www.w3.org/2000/svg">
<g filter="url(#filter0_d_1607_2582)">
<path d="M2.5 9C2.5 4.58172 6.08172 1 10.5 1H18.5C22.9183 1 26.5 4.58172 26.5 9V17C26.5 21.4183 22.9183 25 18.5 25H10.5C6.08172 25 2.5 21.4183 2.5 17V9Z" fill="#F2F4F7"/>
<path d="M17.5 10L11.5 16M11.5 10L17.5 16" stroke="#0A2442" stroke-width="1.67" stroke-linecap="round" stroke-linejoin="round"/>
<path d="M10.5 2H18.5V0H10.5V2ZM25.5 9V17H27.5V9H25.5ZM18.5 24H10.5V26H18.5V24ZM3.5 17V9H1.5V17H3.5ZM10.5 24C6.63401 24 3.5 20.866 3.5 17H1.5C1.5 21.9706 5.52944 26 10.5 26V24ZM25.5 17C25.5 20.866 22.366 24 18.5 24V26C23.4706 26 27.5 21.9706 27.5 17H25.5ZM18.5 2C22.366 2 25.5 5.13401 25.5 9H27.5C27.5 4.02944 23.4706 0 18.5 0V2ZM10.5 0C5.52944 0 1.5 4.02944 1.5 9H3.5C3.5 5.13401 6.63401 2 10.5 2V0Z" fill="#F2F4F7"/>
</g>
<defs>
<filter id="filter0_d_1607_2582" x="0.5" y="0" width="28" height="28" filterUnits="userSpaceOnUse" color-interpolation-filters="sRGB">
<feFlood flood-opacity="0" result="BackgroundImageFix"/>
<feColorMatrix in="SourceAlpha" type="matrix" values="0 0 0 0 0 0 0 0 0 0 0 0 0 0 0 0 0 0 127 0" result="hardAlpha"/>
<feOffset dy="1"/>
<feGaussianBlur stdDeviation="1"/>
<feColorMatrix type="matrix" values="0 0 0 0 0.0627451 0 0 0 0 0.0941176 0 0 0 0 0.156863 0 0 0 0.05 0"/>
<feBlend mode="normal" in2="BackgroundImageFix" result="effect1_dropShadow_1607_2582"/>
<feBlend mode="normal" in="SourceGraphic" in2="effect1_dropShadow_1607_2582" result="shape"/>
</filter>
</defs>
</svg>
