<?xml version="1.0" encoding="utf-8"?>
<!-- Generator: Adobe Illustrator 22.0.1, SVG Export Plug-In . SVG Version: 6.00 Build 0)  -->
<svg version="1.1" id="Capa_1" xmlns="http://www.w3.org/2000/svg" xmlns:xlink="http://www.w3.org/1999/xlink" x="0px" y="0px"
	 viewBox="0 0 148 34" style="enable-background:new 0 0 148 34;" xml:space="preserve">
<style type="text/css">
	.st0{fill:#FFFFFF;}
	.st1{fill:#666666;}
	.st2{fill:#535253;}
	.st3{fill:none;stroke:#000000;stroke-width:0.3;}
</style>
<g id="Capa_1_1_">
	<g>
		<g>
			<g>
				<path class="st0" d="M14.3,33.5c-7.6,0-13.8-6.2-13.8-13.8v-5.3c0-7.6,6.2-13.8,13.8-13.8h119.3c7.6,0,13.8,6.2,13.8,13.8v5.3
					c0,7.6-6.2,13.8-13.8,13.8H14.3z"/>
				<path class="st1" d="M133.7,1C141,1,147,7,147,14.3v5.3c0,7.3-6,13.3-13.3,13.3H14.3C7,33,1,27,1,19.7v-5.3C1,7,7,1,14.3,1
					H133.7 M133.7,0H14.3C6.4,0,0,6.5,0,14.3v5.3C0,27.5,6.4,34,14.3,34h119.3c7.9,0,14.3-6.5,14.3-14.3v-5.3
					C148,6.4,141.6,0,133.7,0L133.7,0z"/>
			</g>
			<g>
				<path class="st2" d="M27.1,24.6H13.4V9.8h13.7v2.5H16.9v3.5h9.2v2.5h-9.2v3.7h10.3L27.1,24.6L27.1,24.6z"/>
				<path class="st2" d="M28.9,9.8H33l4.3,5.4l4.3-5.4h4.1l-6,7.2l6.5,7.5h-4.1L37.3,19l-4.8,5.7h-4.1l6.6-7.5L28.9,9.8z"/>
				<path class="st2" d="M62.1,12.4H56v12.3h-3.5V12.4h-6.1V9.8h15.8C62.1,9.8,62.1,12.4,62.1,12.4z"/>
				<path class="st2" d="M79.5,14.4v0.4c0,1-0.3,1.8-0.9,2.3s-1.3,1-2.2,1.3c0.5,0.2,0.9,0.5,1.2,0.9s0.5,0.8,0.7,1.4l0.6,1.8
					c0.2,0.8,0.6,1.6,1,2.1h-3.7c-0.3-0.4-0.6-1-0.8-1.8l-0.6-2c-0.3-1.1-1.3-1.6-2.7-1.7h-4.3v5.4h-3.5V9.8h9.4
					c1.9,0,3.3,0.4,4.3,1.2C79,11.8,79.5,12.9,79.5,14.4L79.5,14.4z M76,14.5v-0.2c0-0.6-0.2-1.1-0.5-1.5c-0.4-0.4-1-0.6-1.9-0.6
					h-5.8v4.4h5.1C74.8,16.7,76,16,76,14.5z"/>
				<path class="st2" d="M84.8,24.6h-3.6l6.9-14.8h4.6l6.9,14.8H96l-1.5-3.5h-8.2L84.8,24.6z M90.1,12.3l-2.8,6.4h6.1l-2.8-6.4H90.1
					z"/>
				<path class="st2" d="M109.8,15.1v-1c0-1.2,0.2-2.3,1-3.2s2-1.4,4-1.4c1.3,0,2.3,0.2,3.1,0.7c0.7,0.4,1.2,1,1.5,1.7
					s0.4,1.5,0.4,2.2V15c0,0.8-0.1,1.5-0.4,2.2s-0.8,1.3-1.5,1.7s-1.7,0.7-3.1,0.7c-1.3,0-2.3-0.3-3-0.7c-0.7-0.4-1.2-1-1.5-1.7
					C109.9,16.5,109.8,15.8,109.8,15.1L109.8,15.1z M114.8,17.6c0.9,0,1.5-0.3,1.8-0.8c0.3-0.5,0.4-1,0.4-1.6V14
					c0-0.5-0.1-1.1-0.4-1.6s-0.9-0.9-1.9-0.9s-1.6,0.4-1.9,0.8c-0.3,0.5-0.4,1.1-0.4,1.6V15c0,0.5,0.1,1.2,0.4,1.7
					S113.8,17.6,114.8,17.6z M128.8,9.8l-9.7,14.9h-3.1l9.7-14.9H128.8z M125.3,20.5v-1c0-0.8,0.1-1.5,0.4-2.2s0.8-1.3,1.5-1.7
					s1.7-0.7,3.1-0.7c2,0,3.2,0.5,4,1.4c0.7,0.9,1,2,1,3.2v0.9c0,1.2-0.3,2.3-1,3.1s-2,1.4-4,1.4c-1.9,0-3.2-0.6-4-1.4
					S125.3,21.5,125.3,20.5z M130.3,23c0.9,0,1.5-0.3,1.8-0.8c0.3-0.5,0.4-1.1,0.4-1.6v-1.2c0-0.5-0.1-1.1-0.4-1.6s-0.9-0.9-1.9-0.9
					s-1.6,0.4-1.9,0.8c-0.3,0.5-0.4,1.1-0.4,1.6v1.1c0,0.5,0.1,1.2,0.4,1.7S129.4,23,130.3,23L130.3,23z"/>
			</g>
		</g>
	</g>
</g>
</svg>
