<svg enable-background="new 0 0 512 512" height="512" viewBox="0 0 512 512" width="512" xmlns="http://www.w3.org/2000/svg" xmlns:xlink="http://www.w3.org/1999/xlink"><linearGradient id="SVGID_1_" gradientUnits="userSpaceOnUse" x1="76.597" x2="435.374" y1="435.389" y2="76.612"><stop offset="0" stop-color="#0095da"/><stop offset=".5" stop-color="#00aeee"/><stop offset="1" stop-color="#2bc4f3"/></linearGradient><g id="_x30_6_Next"><path d="m255.95 2.213c-139.94 0-253.787 113.847-253.787 253.787s113.847 253.787 253.787 253.787c139.994 0 253.888-113.847 253.888-253.787s-113.894-253.787-253.888-253.787zm0 491.712c-131.192 0-237.926-106.733-237.926-237.925s106.734-237.925 237.926-237.925c131.246 0 238.026 106.733 238.026 237.925s-106.78 237.925-238.026 237.925zm-16.067-285.471-76.9-61.933c-15.118-12.175-37.292-9.77-49.459 5.329-12.167 15.107-9.774 37.296 5.329 49.467l67.9 54.683-67.9 54.683c-15.103 12.171-17.496 34.361-5.329 49.467 12.126 15.055 34.308 17.527 49.463 5.329l78.216-62.997c28.916-23.29 31.033-67.961-1.32-94.028zm-8.632 81.674-78.212 62.997c-8.299 6.68-20.478 5.371-27.162-2.928-6.68-8.295-5.367-20.478 2.928-27.162l75.568-60.86c3.931-3.172 3.944-9.17 0-12.353l-75.568-60.86c-8.295-6.684-9.608-18.867-2.928-27.162 6.657-8.267 18.839-9.628 27.158-2.928l76.896 61.933c24.705 19.897 22.095 52.592 1.32 69.323zm166.11-81.674-76.9-61.933c-15.11-12.167-37.304-9.77-49.463 5.332-12.163 15.107-9.77 37.296 5.332 49.463l67.9 54.683-67.9 54.683c-15.103 12.167-17.496 34.357-5.332 49.463v.004c12.129 15.052 34.305 17.529 49.463 5.329l78.22-62.997c28.916-23.289 31.034-67.96-1.32-94.027zm-8.632 81.674-78.22 62.997c-8.303 6.676-20.482 5.363-27.158-2.928-6.68-8.299-5.363-20.482 2.931-27.162l75.568-60.86c3.931-3.172 3.944-9.17 0-12.353l-75.568-60.86c-8.295-6.68-9.612-18.867-2.931-27.162 6.676-8.295 18.871-9.611 27.158-2.928l76.9 61.933c24.705 19.897 22.095 52.592 1.32 69.323z" fill="url(#SVGID_1_)"/></g></svg>