<svg width="28" height="16" viewBox="0 0 28 16" fill="none" xmlns="http://www.w3.org/2000/svg">
<path d="M27.1171 1.19701C26.7288 1.00247 25.5637 1.00247 24.2045 1.00247C22.8453 1.00247 21.6802 1.00247 21.2919 1.19701C21.0977 1.39154 20.321 2.75328 19.5443 4.30956C18.5734 6.06037 17.6026 7.61665 16.8259 7.61665C15.855 7.61665 16.0492 4.69863 16.2433 2.75328C16.2433 1.39154 16.0492 1.00247 15.855 0.807938C15.2725 0.418869 14.1074 0.224335 14.1074 0.224335C14.1074 0.224335 10.2239 -0.164734 9.6414 1.58608C10.4181 1.78061 11.7773 1.39154 11.1948 6.83851C11.1948 7.03304 10.6123 9.36746 8.67052 6.2549C8.28218 5.47677 6.34043 1.00247 5.7579 1.00247C3.62198 1.00247 1.68023 0.807938 0.903535 1.19701C0.321011 1.58608 1.87441 4.69863 4.39868 8.78385C6.5346 12.0909 8.8647 14.8144 12.7482 15.398C13.5249 15.398 15.4666 15.5926 16.0492 15.2035C16.4375 15.009 16.0492 12.0909 17.4084 11.8964C17.9909 11.7019 20.321 15.009 21.2919 15.2035C21.8744 15.398 23.0395 15.5926 24.2045 15.398C25.5637 15.398 27.1171 15.5926 27.1171 14.6199C27.5055 12.6745 23.0395 9.95106 23.0395 8.78385C23.0395 7.81118 24.5929 6.2549 25.5637 5.0877C26.7288 3.72596 27.6996 1.78061 27.1171 1.19701Z" fill="#A5B1C8"/>
</svg>
